<svg xmlns="http://www.w3.org/2000/svg" xmlns:xlink="http://www.w3.org/1999/xlink" width="1280" height="32" viewBox="0 0 1280 32">
  <defs>
    <clipPath id="clip-path">
      <rect width="1280" height="32" fill="none"/>
    </clipPath>
  </defs>
  <g id="wave" transform="translate(3435 -5791)">
    <g id="レイヤー_1" data-name="レイヤー 1" transform="translate(-3435 5791)" clip-path="url(#clip-path)">
      <g id="レイヤー_1-2" data-name="レイヤー 1">
        <path id="パス_43736" data-name="パス 43736" d="M0,14.24c10.619,0,16-3.69,21.208-7.26S31.374,0,41.5,0,56.584,3.39,61.792,7,72.4,14.24,83,14.24V32H0Z" fill="#dff1fd"/>
      </g>
      <g id="レイヤー_1-3" data-name="レイヤー 1" transform="translate(83)">
        <path id="パス_43736-2" data-name="パス 43736" d="M0,14.24c10.619,0,16-3.69,21.208-7.26S31.374,0,41.5,0,56.584,3.39,61.792,7,72.4,14.24,83,14.24V32H0Z" fill="#dff1fd"/>
      </g>
      <g id="レイヤー_1-4" data-name="レイヤー 1" transform="translate(166)">
        <path id="パス_43736-3" data-name="パス 43736" d="M0,14.24c10.619,0,16-3.69,21.208-7.26S31.374,0,41.5,0,56.584,3.39,61.792,7,72.4,14.24,83,14.24V32H0Z" fill="#dff1fd"/>
      </g>
      <g id="レイヤー_1-5" data-name="レイヤー 1" transform="translate(249)">
        <path id="パス_43736-4" data-name="パス 43736" d="M0,14.24c10.619,0,16-3.69,21.208-7.26S31.374,0,41.5,0,56.584,3.39,61.792,7,72.4,14.24,83,14.24V32H0Z" fill="#dff1fd"/>
      </g>
      <g id="レイヤー_1-6" data-name="レイヤー 1" transform="translate(332)">
        <path id="パス_43736-5" data-name="パス 43736" d="M0,14.24c10.619,0,16-3.69,21.208-7.26S31.374,0,41.5,0,56.584,3.39,61.792,7,72.4,14.24,83,14.24V32H0Z" fill="#dff1fd"/>
      </g>
      <g id="レイヤー_1-7" data-name="レイヤー 1" transform="translate(415)">
        <path id="パス_43736-6" data-name="パス 43736" d="M0,14.24c10.619,0,16-3.69,21.208-7.26S31.374,0,41.5,0,56.584,3.39,61.792,7,72.4,14.24,83,14.24V32H0Z" fill="#dff1fd"/>
      </g>
      <g id="レイヤー_1-8" data-name="レイヤー 1" transform="translate(498)">
        <path id="パス_43736-7" data-name="パス 43736" d="M0,14.24c10.619,0,16-3.69,21.208-7.26S31.374,0,41.5,0,56.584,3.39,61.792,7,72.4,14.24,83,14.24V32H0Z" fill="#dff1fd"/>
      </g>
      <g id="レイヤー_1-9" data-name="レイヤー 1" transform="translate(581)">
        <path id="パス_43736-8" data-name="パス 43736" d="M0,14.24c10.619,0,16-3.69,21.208-7.26S31.374,0,41.5,0,56.584,3.39,61.792,7,72.4,14.24,83,14.24V32H0Z" fill="#dff1fd"/>
      </g>
      <g id="レイヤー_1-10" data-name="レイヤー 1" transform="translate(664)">
        <path id="パス_43736-9" data-name="パス 43736" d="M0,14.24c10.619,0,16-3.69,21.208-7.26S31.374,0,41.5,0,56.584,3.39,61.792,7,72.4,14.24,83,14.24V32H0Z" fill="#dff1fd"/>
      </g>
      <g id="レイヤー_1-11" data-name="レイヤー 1" transform="translate(747)">
        <path id="パス_43736-10" data-name="パス 43736" d="M0,14.24c10.619,0,16-3.69,21.208-7.26S31.374,0,41.5,0,56.584,3.39,61.792,7,72.4,14.24,83,14.24V32H0Z" fill="#dff1fd"/>
      </g>
      <g id="レイヤー_1-12" data-name="レイヤー 1" transform="translate(830)">
        <path id="パス_43736-11" data-name="パス 43736" d="M0,14.24c10.619,0,16-3.69,21.208-7.26S31.374,0,41.5,0,56.584,3.39,61.792,7,72.4,14.24,83,14.24V32H0Z" fill="#dff1fd"/>
      </g>
      <g id="レイヤー_1-13" data-name="レイヤー 1" transform="translate(913)">
        <path id="パス_43736-12" data-name="パス 43736" d="M0,14.24c10.619,0,16-3.69,21.208-7.26S31.374,0,41.5,0,56.584,3.39,61.792,7,72.4,14.24,83,14.24V32H0Z" fill="#dff1fd"/>
      </g>
      <g id="レイヤー_1-14" data-name="レイヤー 1" transform="translate(996)">
        <path id="パス_43736-13" data-name="パス 43736" d="M0,14.24c10.619,0,16-3.69,21.208-7.26S31.374,0,41.5,0,56.584,3.39,61.792,7,72.4,14.24,83,14.24V32H0Z" fill="#dff1fd"/>
      </g>
      <g id="レイヤー_1-15" data-name="レイヤー 1" transform="translate(1079)">
        <path id="パス_43736-14" data-name="パス 43736" d="M0,14.24c10.619,0,16-3.69,21.208-7.26S31.374,0,41.5,0,56.584,3.39,61.792,7,72.4,14.24,83,14.24V32H0Z" fill="#dff1fd"/>
      </g>
      <g id="レイヤー_1-16" data-name="レイヤー 1" transform="translate(1162)">
        <path id="パス_43736-15" data-name="パス 43736" d="M0,14.24c10.619,0,16-3.69,21.208-7.26S31.374,0,41.5,0,56.584,3.39,61.792,7,72.4,14.24,83,14.24V32H0Z" fill="#dff1fd"/>
      </g>
      <g id="レイヤー_1-17" data-name="レイヤー 1" transform="translate(1245)">
        <path id="パス_43736-16" data-name="パス 43736" d="M0,14.24c10.619,0,16-3.69,21.208-7.26S31.374,0,41.5,0,56.584,3.39,61.792,7,72.4,14.24,83,14.24V32H0Z" fill="#dff1fd"/>
      </g>
    </g>
  </g>
</svg>
